<?xml version="1.0" standalone="no"?>
<!DOCTYPE svg PUBLIC "-//W3C//DTD SVG 20010904//EN"
 "http://www.w3.org/TR/2001/REC-SVG-20010904/DTD/svg10.dtd">
<svg version="1.0" xmlns="http://www.w3.org/2000/svg"
 width="469.000000pt" height="469.000000pt" viewBox="0 0 469.000000 469.000000"
 preserveAspectRatio="xMidYMid meet">
<metadata>
Created by potrace 1.14, written by Peter Selinger 2001-2017
</metadata>
<g transform="translate(0.000000,469.000000) scale(0.100000,-0.100000)"
fill="#000000" stroke="none">
<path d="M1385 4680 c3 -5 -2 -21 -11 -35 -9 -14 -13 -25 -9 -25 4 0 3 -6 -2
-12 -8 -11 -22 -49 -27 -78 -1 -3 -5 -11 -9 -17 -5 -7 -5 -13 -1 -13 3 0 2 -6
-3 -12 -6 -7 -10 -25 -9 -40 1 -16 -1 -28 -4 -28 -13 0 -18 -216 -6 -290 20
-131 27 -164 38 -177 5 -7 7 -17 3 -23 -3 -5 -1 -10 6 -10 7 0 10 -3 6 -6 -3
-4 3 -24 13 -45 11 -21 20 -45 20 -54 0 -8 4 -15 9 -15 5 0 12 -11 15 -24 6
-24 36 -45 36 -24 0 20 91 138 158 204 37 36 104 90 149 120 80 54 226 124
256 124 41 0 19 19 -46 39 -161 52 -306 140 -420 255 -76 77 -97 101 -97 111
0 3 -11 18 -24 32 -14 15 -23 30 -21 34 3 4 -2 10 -11 13 -8 3 -12 2 -9 -4z"/>
<path d="M3233 4673 c-7 -3 -13 -9 -13 -15 0 -12 -51 -78 -102 -133 -21 -22
-38 -43 -38 -47 0 -5 -5 -8 -10 -8 -6 0 -21 -11 -33 -24 -63 -67 -226 -158
-367 -205 l-83 -27 64 -23 c76 -27 196 -90 258 -134 94 -68 252 -241 274 -299
9 -24 27 -23 27 2 0 11 4 20 8 20 10 0 46 79 45 98 0 6 3 12 9 12 5 0 7 4 3 9
-3 5 -1 12 4 15 4 3 12 20 16 38 4 18 9 38 10 43 5 15 16 74 25 129 14 92 1
288 -27 396 -3 14 -6 28 -5 33 1 4 -3 7 -9 7 -5 0 -7 5 -4 10 3 6 3 16 -2 23
-4 6 -8 14 -9 17 -4 24 -32 66 -41 63z"/>
<path d="M2215 4179 c-160 -21 -325 -85 -451 -174 -70 -51 -204 -182 -204
-202 0 -7 -4 -13 -9 -13 -13 0 -81 -120 -114 -200 -59 -144 -81 -299 -64 -460
9 -84 11 -92 21 -108 4 -7 5 -16 2 -19 -3 -3 -1 -12 5 -20 6 -7 9 -13 6 -13
-3 0 4 -24 15 -52 11 -29 22 -61 25 -70 3 -10 10 -18 16 -18 6 0 7 -3 4 -6
-16 -16 96 -177 180 -261 61 -60 75 -83 52 -83 -19 0 -171 -110 -233 -169 -83
-79 -92 -89 -139 -151 -22 -30 -48 -61 -56 -68 -8 -6 -11 -12 -7 -12 4 0 -4
-15 -18 -33 -15 -19 -26 -39 -26 -45 0 -7 -5 -12 -12 -12 -6 0 -8 -3 -5 -6 4
-4 -2 -19 -12 -33 -15 -22 -25 -42 -36 -71 -1 -3 -7 -18 -14 -35 -6 -16 -11
-34 -10 -39 0 -5 -3 -12 -8 -15 -8 -6 -21 -45 -44 -136 -20 -74 -30 -138 -34
-208 -2 -27 -5 -51 -9 -54 -3 -3 -1 -14 5 -24 5 -11 6 -19 1 -19 -4 0 -8 -14
-7 -30 0 -17 2 -30 5 -30 3 0 6 -26 6 -58 2 -62 9 -114 24 -177 5 -22 9 -41
10 -42 0 -2 0 -4 1 -5 4 -13 10 -45 11 -55 1 -7 4 -13 8 -13 3 0 7 -10 7 -22
2 -25 2 -25 66 -158 45 -92 76 -150 88 -160 3 -3 19 -25 36 -50 17 -25 41 -57
54 -71 13 -15 31 -35 40 -45 49 -60 254 -225 299 -242 8 -3 22 -10 30 -17 23
-17 176 -85 242 -106 213 -68 459 -80 680 -34 309 65 585 240 783 495 31 41
61 85 66 98 5 12 14 22 20 22 7 0 9 3 6 6 -4 4 3 20 14 35 11 16 17 29 12 29
-4 0 -3 4 2 8 12 8 54 101 80 177 47 134 11 253 -94 316 -48 29 -63 34 -121
33 -54 0 -75 -5 -116 -28 -50 -29 -93 -72 -94 -92 0 -6 -7 -17 -15 -24 -8 -7
-15 -19 -15 -28 0 -25 -98 -213 -133 -256 -102 -125 -245 -232 -372 -277 -119
-43 -184 -53 -320 -51 -284 4 -548 158 -700 408 -24 41 -42 74 -39 74 4 0 1 6
-5 14 -17 20 -62 174 -66 226 -2 25 -4 47 -5 50 -5 12 4 211 10 218 1 1 4 11
5 22 1 11 3 21 5 23 1 1 3 9 5 17 8 40 49 147 61 161 8 8 14 23 14 31 0 9 3
18 8 20 11 5 52 66 52 78 0 5 4 10 8 10 5 0 15 11 22 25 7 14 15 24 16 22 2
-2 33 25 69 59 36 34 92 78 124 97 50 30 173 85 206 92 5 1 21 5 35 8 110 29
268 30 414 3 48 -9 116 -30 189 -59 l78 -30 40 44 c33 36 78 105 84 129 1 3 7
19 14 35 16 37 20 62 26 142 2 35 7 67 10 73 3 5 2 10 -2 10 -9 0 -11 9 -16
60 -1 14 -4 27 -7 30 -3 3 -11 23 -19 45 -8 22 -27 60 -44 85 -29 44 -122 140
-135 140 -4 0 -27 -21 -52 -46 -120 -123 -292 -193 -443 -180 -134 12 -192 25
-266 63 -82 41 -192 140 -232 208 -12 22 -27 43 -32 46 -5 4 -6 12 -3 18 4 6
2 11 -3 11 -6 0 -11 9 -11 20 0 11 -5 20 -12 20 -6 0 -8 3 -5 6 3 4 2 14 -2
23 -23 43 -32 195 -17 281 10 57 14 74 16 78 2 1 3 10 4 20 0 11 7 26 13 34 7
8 10 18 6 21 -3 4 -1 7 6 7 7 0 10 4 6 9 -3 5 2 17 11 25 8 9 13 16 9 16 -15
0 94 126 140 162 146 117 357 164 525 119 73 -20 87 -25 142 -55 70 -39 103
-63 137 -100 14 -16 35 -39 46 -51 26 -28 38 -47 79 -127 19 -38 32 -68 28
-69 -4 0 3 -4 15 -9 31 -12 117 -4 159 16 45 22 103 80 121 122 13 32 12 38
-22 105 -44 89 -52 102 -90 152 -26 35 -140 151 -177 180 -181 143 -462 223
-683 194z"/>
</g>
</svg>
